<svg aria-hidden="true" style="position: absolute; width: 0; height: 0; overflow: hidden;" version="1.1" xmlns="http://www.w3.org/2000/svg" xmlns:xlink="http://www.w3.org/1999/xlink">
<defs>
<symbol id="alarm" viewBox="0 0 32 32">
<path d="M27.229 14.775c-1.374-3.807-4.725-6.729-8.891-7.659 1.067-1.532 2.836-2.539 4.845-2.539 3.264 0 5.909 2.646 5.909 5.91 0 1.694-0.722 3.211-1.863 4.288zM15.864 4.799v3.716c5.67 0.231 10.199 4.888 10.199 10.614 0 2.392-0.799 4.592-2.13 6.367l2.464 4.269-2.047 1.183-2.109-3.654c-1.846 1.543-4.221 2.474-6.814 2.474-2.579 0-4.943-0.919-6.784-2.445l-2.165 3.747-2.047-1.183 2.516-4.356c-1.348-1.782-2.156-3.995-2.156-6.402 0-5.688 4.468-10.319 10.084-10.608v-3.722c-0.573-0.205-0.989-0.74-0.989-1.385 0-0.82 0.665-1.484 1.484-1.484s1.485 0.665 1.485 1.484c-0.001 0.645-0.417 1.18-0.991 1.385zM7.153 19.129c0 4.57 3.704 8.273 8.273 8.273s8.273-3.703 8.273-8.273c0-4.568-3.705-8.272-8.273-8.272s-8.273 3.704-8.273 8.272zM17.906 20.918h-2.969c-0.547 0-0.99-0.443-0.99-0.99v-3.959c0-0.547 0.443-0.99 0.99-0.99 0.546 0 0.989 0.443 0.989 0.99v2.969h1.979c0.547 0 0.99 0.443 0.99 0.99s-0.442 0.99-0.989 0.99zM3.772 14.775c-1.142-1.078-1.864-2.594-1.864-4.288 0-3.264 2.646-5.91 5.91-5.91 2.008 0 3.776 1.007 4.845 2.539-4.166 0.93-7.517 3.852-8.891 7.659z"></path>
</symbol>
<symbol id="cart" viewBox="0 0 32 32">
<path d="M25.444 16c1.236 0 2.309-0.85 2.594-2.052l2.1-8.857c0.421-1.684-0.852-3.314-2.587-3.314h-23.989c-0.981 0-1.776 0.796-1.776 1.778s0.796 1.778 1.776 1.778h1.778v15.111c0 1.474 1.193 2.667 2.665 2.667h18.66c0.981 0 1.776-0.796 1.776-1.778s-0.795-1.778-1.776-1.778h-17.771v-3.556h16.551zM8.892 5.333h17.534l-1.685 7.111h-15.849v-7.111zM9.781 24.889c-1.472 0-2.667 1.193-2.667 2.667s1.193 2.667 2.667 2.667 2.667-1.193 2.667-2.667-1.193-2.667-2.667-2.667zM23.996 24.889c-1.472 0-2.665 1.193-2.665 2.667s1.193 2.667 2.665 2.667 2.667-1.193 2.667-2.667-1.193-2.667-2.667-2.667z"></path>
</symbol>
<symbol id="chart" viewBox="0 0 32 32">
<path d="M4 28h28v4h-32v-32h4zM9 26c-1.657 0-3-1.343-3-3s1.343-3 3-3c0.088 0 0.176 0.005 0.262 0.012l3.225-5.375c-0.307-0.471-0.487-1.033-0.487-1.638 0-1.657 1.343-3 3-3s3 1.343 3 3c0 0.604-0.179 1.167-0.487 1.638l3.225 5.375c0.086-0.007 0.174-0.012 0.262-0.012 0.067 0 0.133 0.003 0.198 0.007l5.324-9.316c-0.329-0.482-0.522-1.064-0.522-1.691 0-1.657 1.343-3 3-3s3 1.343 3 3c0 1.657-1.343 3-3 3-0.067 0-0.133-0.003-0.198-0.007l-5.324 9.316c0.329 0.481 0.522 1.064 0.522 1.691 0 1.657-1.343 3-3 3s-3-1.343-3-3c0-0.604 0.179-1.167 0.487-1.638l-3.225-5.375c-0.086 0.007-0.174 0.012-0.262 0.012s-0.176-0.005-0.262-0.012l-3.225 5.375c0.307 0.471 0.487 1.033 0.487 1.637 0 1.657-1.343 3-3 3z"></path>
</symbol>
<symbol id="close" viewBox="0 0 32 32">
<path d="M28.728 0.444l2.828 2.828-12.728 12.728 12.728 12.728-2.828 2.828-12.728-12.728-12.728 12.728-2.828-2.828 12.728-12.728-12.728-12.728 2.828-2.828 12.728 12.728 12.728-12.728z"></path>
</symbol>
<symbol id="facebook" viewBox="0 0 32 32">
<path d="M19 6h5v-6h-5c-3.86 0-7 3.14-7 7v3h-4v6h4v16h6v-16h5l1-6h-6v-3c0-0.542 0.458-1 1-1z"></path>
</symbol>
<symbol id="hamburger" viewBox="0 0 32 32">
<path d="M32 24v3.2h-32v-3.2h32zM32 14.4v3.2h-32v-3.2h32zM32 4.8v3.2h-32v-3.2h32z"></path>
</symbol>
<symbol id="home" viewBox="0 0 32 32">
<path d="M32 18.451l-16-12.42-16 12.42v-5.064l16-12.42 16 12.42zM28 18v12h-8v-8h-8v8h-8v-12l12-9z"></path>
</symbol>
<symbol id="instagram" viewBox="0 0 32 32">
<path d="M27.2 1.6h-22.4c-1.76 0-3.2 1.44-3.2 3.2v22.4c0 1.762 1.44 3.2 3.2 3.2h22.4c1.76 0 3.2-1.438 3.2-3.2v-22.4c0-1.76-1.44-3.2-3.2-3.2zM15.974 24.837c4.894 0 8.861-3.97 8.861-8.862 0-0.541-0.069-1.062-0.165-1.574h2.53v11.546c0 0.611-0.496 1.104-1.109 1.104h-20.182c-0.613 0-1.109-0.493-1.109-1.104v-11.546h2.478c-0.098 0.512-0.166 1.034-0.166 1.574 0 4.894 3.97 8.862 8.862 8.862zM10.437 15.974c0-3.059 2.48-5.538 5.539-5.538s5.539 2.478 5.539 5.538-2.482 5.539-5.539 5.539c-3.061 0-5.539-2.48-5.539-5.539zM26.091 9.6h-2.584c-0.611 0-1.107-0.499-1.107-1.107v-2.587c0-0.611 0.496-1.106 1.106-1.106h2.584c0.614 0 1.11 0.494 1.11 1.106v2.586c0 0.61-0.496 1.109-1.109 1.109z"></path>
</symbol>
<symbol id="notepad" viewBox="0 0 32 32">
<path d="M21 4v-1h1v1h1.003c1.107 0 1.997 0.897 1.997 2.004v20.993c0 1.114-0.894 2.004-1.997 2.004h-15.005c-1.107 0-1.997-0.897-1.997-2.004v-20.993c0-1.114 0.894-2.004 1.997-2.004h1.003v-1h1v1h3v-1h1v1h3v-1h1v1h3zM21 5h-3v1h-1v-1h-3v1h-1v-1h-3v1h-1v-1h-1c-0.552 0-1 0.439-1 1.003v20.994c0 0.554 0.455 1.003 1 1.003h15c0.552 0 1-0.439 1-1.003v-20.994c0-0.554-0.455-1.003-1-1.003h-1v1h-1v-1zM9 9v1h13v-1h-13zM9 12v1h13v-1h-13zM9 15v1h13v-1h-13zM9 18v1h13v-1h-13zM9 21v1h13v-1h-13zM9 24v1h13v-1h-13z"></path>
</symbol>
<symbol id="pinterest" viewBox="0 0 32 32">
<path d="M13.787 21.163c-0.842 4.406-1.867 8.63-4.909 10.837-0.938-6.659 1.378-11.659 2.454-16.968-1.835-3.088 0.221-9.299 4.088-7.768 4.76 1.882-4.122 11.475 1.84 12.675 6.226 1.25 8.766-10.8 4.906-14.718-5.576-5.661-16.234-0.133-14.922 7.971 0.318 1.981 2.365 2.581 0.818 5.315-3.57-0.79-4.635-3.606-4.498-7.36 0.221-6.144 5.518-10.443 10.834-11.040 6.722-0.754 13.030 2.469 13.902 8.79 0.981 7.138-3.034 14.869-10.222 14.312-1.949-0.152-2.765-1.118-4.291-2.046z"></path>
</symbol>
<symbol id="resize" viewBox="0 0 32 32">
<path d="M26 8l6-6-2-2-6 6h-14v-6h-4v6h-6v4h6v16h16v6h4v-6h6v-4h-6v-14zM10 10h10l-10 10v-10zM12 22l10-10v10h-10z"></path>
</symbol>
<symbol id="screen" viewBox="0 0 32 32">
<path d="M0 2v20h32v-20h-32zM30 20h-28v-16h28v16zM21 24h-10l-1 4-2 2h16l-2-2z"></path>
</symbol>
<symbol id="search" viewBox="0 0 32 32">
<path d="M31.008 27.231l-7.58-6.447c-0.784-0.705-1.622-1.029-2.299-0.998 1.789-2.096 2.87-4.815 2.87-7.787 0-6.627-5.373-12-12-12s-12 5.373-12 12 5.373 12 12 12c2.972 0 5.691-1.081 7.787-2.87-0.031 0.677 0.293 1.515 0.998 2.299l6.447 7.58c1.104 1.226 2.907 1.33 4.007 0.23s0.997-2.903-0.23-4.007zM12 20c-4.418 0-8-3.582-8-8s3.582-8 8-8 8 3.582 8 8-3.582 8-8 8z"></path>
</symbol>
<symbol id="twitter" viewBox="0 0 32 32">
<path d="M32 7.075c-1.175 0.525-2.444 0.875-3.769 1.031 1.356-0.813 2.394-2.1 2.887-3.631-1.269 0.75-2.675 1.3-4.169 1.594-1.2-1.275-2.906-2.069-4.794-2.069-3.625 0-6.563 2.938-6.563 6.563 0 0.512 0.056 1.012 0.169 1.494-5.456-0.275-10.294-2.888-13.531-6.862-0.563 0.969-0.887 2.1-0.887 3.3 0 2.275 1.156 4.287 2.919 5.463-1.075-0.031-2.087-0.331-2.975-0.819 0 0.025 0 0.056 0 0.081 0 3.181 2.263 5.838 5.269 6.437-0.55 0.15-1.131 0.231-1.731 0.231-0.425 0-0.831-0.044-1.237-0.119 0.838 2.606 3.263 4.506 6.131 4.563-2.25 1.762-5.075 2.813-8.156 2.813-0.531 0-1.050-0.031-1.569-0.094 2.913 1.869 6.362 2.95 10.069 2.95 12.075 0 18.681-10.006 18.681-18.681 0-0.287-0.006-0.569-0.019-0.85 1.281-0.919 2.394-2.075 3.275-3.394z"></path>
</symbol>
</defs>
</svg>
